{"accessors":[{"bufferView":0,"byteOffset":0,"componentType":5123,"count":6,"type":"SCALAR"},{"bufferView":1,"byteOffset":0,"componentType":5126,"count":6,"max":[0.500000298023224,0,0.5],"min":[-0.50000023841858,0,-0.5],"type":"VEC3"},{"bufferView":2,"byteOffset":0,"componentType":5126,"count":6,"type":"VEC3"},{"bufferView":3,"byteOffset":0,"componentType":5126,"count":6,"type":"VEC2"},{"bufferView":4,"byteOffset":0,"componentType":5123,"count":15864,"type":"SCALAR"},{"bufferView":5,"byteOffset":0,"componentType":5126,"count":10240,"max":[0.514550566673279,2.5,0.514650106430054],"min":[-0.51455056667328,-0.00000002523312,-0.51465010643005],"type":"VEC3"},{"bufferView":6,"byteOffset":0,"componentType":5126,"count":10240,"type":"VEC3"},{"bufferView":7,"byteOffset":0,"componentType":5126,"count":10240,"type":"VEC2"}],"asset":{"generator":"FBX2glTF v0.13.0","version":"2.0"},"bufferViews":[{"buffer":0,"byteLength":12,"byteOffset":0,"target":34963},{"buffer":0,"byteLength":72,"byteOffset":12,"target":34962},{"buffer":0,"byteLength":72,"byteOffset":84,"target":34962},{"buffer":0,"byteLength":48,"byteOffset":156,"target":34962},{"buffer":0,"byteLength":31728,"byteOffset":204,"target":34963},{"buffer":0,"byteLength":122880,"byteOffset":31932,"target":34962},{"buffer":0,"byteLength":122880,"byteOffset":154812,"target":34962},{"buffer":0,"byteLength":81920,"byteOffset":277692,"target":34962}],"buffers":[{"byteLength":359612,"uri":"Dungeon_Tilemap_06.bin"}],"images":[{"name":"Dungone_Floor_normal","uri":"Dungone_Floor_normal.png"},{"name":"ao_met_rough_Dungeon_Floor_roughness","uri":"ao_met_rough_Dungeon_Floor_roughness.png"},{"name":"Dungeon_Floor","uri":"../Textures/Floor_Tiles_5x5/Dungeon_Floor.png"},{"name":"Dungeon_Wall","uri":"../textures/Dungeon_Wall.png"}],"materials":[{"alphaMode":"OPAQUE","doubleSided":false,"extras":{"fromFBX":{"isTruePBR":false,"shadingModel":"Phong"}},"name":"Dungeon_Floor","normalTexture":{"index":0,"texCoord":0},"pbrMetallicRoughness":{"baseColorFactor":[1,1,1,1],"baseColorTexture":{"index":2,"texCoord":0},"metallicFactor":1,"metallicRoughnessTexture":{"index":1,"texCoord":0},"roughnessFactor":1}},{"alphaMode":"OPAQUE","doubleSided":false,"extras":{"fromFBX":{"isTruePBR":false,"shadingModel":"Phong"}},"name":"Dungeon_Wall","pbrMetallicRoughness":{"baseColorFactor":[1,1,1,1],"baseColorTexture":{"index":3,"texCoord":0},"metallicFactor":0.400000005960464,"roughnessFactor":1}}],"meshes":[{"name":"Dungeon_Tilemap_06","primitives":[{"attributes":{"NORMAL":2,"POSITION":1,"TEXCOORD_0":3},"indices":0,"material":0,"mode":4},{"attributes":{"NORMAL":6,"POSITION":5,"TEXCOORD_0":7},"indices":4,"material":1,"mode":4}]}],"nodes":[{"mesh":0,"name":"Dungeon_Tilemap_06","originalUnits":0.00999999977648258,"pivot":[0,0,0],"rotation":[0,0,0,1],"scale":[1,1,1],"translation":[0,0,0]}],"samplers":[{}],"scene":0,"scenes":[{"name":"Root Scene","nodes":[0]}],"textures":[{"name":"normalmap_texture","sampler":0,"source":0},{"name":"ao_met_rough_Dungeon_Floor_roughness","sampler":0,"source":1},{"name":"base_color_texture","sampler":0,"source":2},{"name":"base_color_texture 1","sampler":0,"source":3}]}