{"accessors":[{"bufferView":0,"byteOffset":0,"componentType":5123,"count":1110,"type":"SCALAR"},{"bufferView":1,"byteOffset":0,"componentType":5126,"count":694,"max":[0.336431920528412,0.304788887500763,0.336431920528412],"min":[-0.33643192052841,-0.30422109365463,-0.33966076374054],"type":"VEC3"},{"bufferView":2,"byteOffset":0,"componentType":5126,"count":694,"type":"VEC3"},{"bufferView":3,"byteOffset":0,"componentType":5126,"count":694,"type":"VEC2"}],"asset":{"generator":"FBX2glTF v0.13.0","version":"2.0"},"bufferViews":[{"buffer":0,"byteLength":2220,"byteOffset":0,"target":34963},{"buffer":0,"byteLength":8328,"byteOffset":2220,"target":34962},{"buffer":0,"byteLength":8328,"byteOffset":10548,"target":34962},{"buffer":0,"byteLength":5552,"byteOffset":18876,"target":34962}],"buffers":[{"byteLength":24428,"uri":"Barrel.bin"}],"materials":[{"alphaMode":"OPAQUE","doubleSided":false,"extras":{"fromFBX":{"isTruePBR":false,"shadingModel":"Lambert"}},"name":"DefaultMaterial","pbrMetallicRoughness":{"baseColorFactor":[0.5,0.5,0.5,1],"metallicFactor":0.200000002980232,"roughnessFactor":0.800000011920929}}],"meshes":[{"name":"Barrel","primitives":[{"attributes":{"NORMAL":2,"POSITION":1,"TEXCOORD_0":3},"indices":0,"material":0,"mode":4}]}],"nodes":[{"mesh":0,"name":"Barrel","originalUnits":0.00999999977648258,"pivot":[0,0,0],"rotation":[0,0,0,1],"scale":[1,1,1],"translation":[0,0,0]}],"samplers":[{}],"scene":0,"scenes":[{"name":"Root Scene","nodes":[0]}]}