{"accessors":[{"bufferView":0,"byteOffset":0,"componentType":5123,"count":1152,"type":"SCALAR"},{"bufferView":1,"byteOffset":0,"componentType":5126,"count":722,"max":[0.177157625555992,0.100000038743019,0.230000585317612],"min":[-0.20284232497215,-0.00000000154939,-0.20999938249588],"type":"VEC3"},{"bufferView":2,"byteOffset":0,"componentType":5126,"count":722,"type":"VEC3"},{"bufferView":3,"byteOffset":0,"componentType":5126,"count":722,"type":"VEC2"}],"asset":{"generator":"FBX2glTF v0.13.0","version":"2.0"},"bufferViews":[{"buffer":0,"byteLength":2304,"byteOffset":0,"target":34963},{"buffer":0,"byteLength":8664,"byteOffset":2304,"target":34962},{"buffer":0,"byteLength":8664,"byteOffset":10968,"target":34962},{"buffer":0,"byteLength":5776,"byteOffset":19632,"target":34962}],"buffers":[{"byteLength":25408,"uri":"Book.bin"}],"materials":[{"alphaMode":"OPAQUE","doubleSided":false,"extras":{"fromFBX":{"isTruePBR":false,"shadingModel":"Lambert"}},"name":"DefaultMaterial","pbrMetallicRoughness":{"baseColorFactor":[0.5,0.5,0.5,1],"metallicFactor":0.200000002980232,"roughnessFactor":0.800000011920929}}],"meshes":[{"name":"Book","primitives":[{"attributes":{"NORMAL":2,"POSITION":1,"TEXCOORD_0":3},"indices":0,"material":0,"mode":4}]}],"nodes":[{"mesh":0,"name":"Book","originalUnits":0.00999999977648258,"pivot":[0,0,0],"rotation":[0,0,0,1],"scale":[1,1,1],"translation":[0,0,0]}],"samplers":[{}],"scene":0,"scenes":[{"name":"Root Scene","nodes":[0]}]}