{"accessors":[{"bufferView":0,"byteOffset":0,"componentType":5123,"count":768,"type":"SCALAR"},{"bufferView":1,"byteOffset":0,"componentType":5126,"count":500,"max":[0.0600544959306717,0.454282104969025,0.0631450414657593],"min":[-0.06005449593067,0.0000000113175175897595,-0.0631450638175],"type":"VEC3"},{"bufferView":2,"byteOffset":0,"componentType":5126,"count":500,"type":"VEC3"},{"bufferView":3,"byteOffset":0,"componentType":5126,"count":500,"type":"VEC2"}],"asset":{"generator":"FBX2glTF v0.13.0","version":"2.0"},"bufferViews":[{"buffer":0,"byteLength":1536,"byteOffset":0,"target":34963},{"buffer":0,"byteLength":6000,"byteOffset":1536,"target":34962},{"buffer":0,"byteLength":6000,"byteOffset":7536,"target":34962},{"buffer":0,"byteLength":4000,"byteOffset":13536,"target":34962}],"buffers":[{"byteLength":17536,"uri":"Bottle 2.bin"}],"materials":[{"alphaMode":"OPAQUE","doubleSided":false,"extras":{"fromFBX":{"isTruePBR":false,"shadingModel":"Lambert"}},"name":"DefaultMaterial","pbrMetallicRoughness":{"baseColorFactor":[0.5,0.5,0.5,1],"metallicFactor":0.200000002980232,"roughnessFactor":0.800000011920929}}],"meshes":[{"name":"Bottle","primitives":[{"attributes":{"NORMAL":2,"POSITION":1,"TEXCOORD_0":3},"indices":0,"material":0,"mode":4}]}],"nodes":[{"mesh":0,"name":"Bottle","originalUnits":0.00999999977648258,"pivot":[0,0,0],"rotation":[0,0,0,1],"scale":[1,1,1],"translation":[0,0,0]}],"samplers":[{}],"scene":0,"scenes":[{"name":"Root Scene","nodes":[0]}]}