{"accessors":[{"bufferView":0,"byteOffset":0,"componentType":5123,"count":516,"type":"SCALAR"},{"bufferView":1,"byteOffset":0,"componentType":5126,"count":336,"max":[0.0500003807246685,0.225863680243492,0.0499999932944775],"min":[-0.04999961704016,-0.00000011540407,-0.05000000819564],"type":"VEC3"},{"bufferView":2,"byteOffset":0,"componentType":5126,"count":336,"type":"VEC3"},{"bufferView":3,"byteOffset":0,"componentType":5126,"count":336,"type":"VEC2"}],"asset":{"generator":"FBX2glTF v0.13.0","version":"2.0"},"bufferViews":[{"buffer":0,"byteLength":1032,"byteOffset":0,"target":34963},{"buffer":0,"byteLength":4032,"byteOffset":1032,"target":34962},{"buffer":0,"byteLength":4032,"byteOffset":5064,"target":34962},{"buffer":0,"byteLength":2688,"byteOffset":9096,"target":34962}],"buffers":[{"byteLength":11784,"uri":"Candle_2.bin"}],"materials":[{"alphaMode":"OPAQUE","doubleSided":false,"extras":{"fromFBX":{"isTruePBR":false,"shadingModel":"Lambert"}},"name":"DefaultMaterial","pbrMetallicRoughness":{"baseColorFactor":[0.5,0.5,0.5,1],"metallicFactor":0.200000002980232,"roughnessFactor":0.800000011920929}}],"meshes":[{"name":"Candle_2","primitives":[{"attributes":{"NORMAL":2,"POSITION":1,"TEXCOORD_0":3},"indices":0,"material":0,"mode":4}]}],"nodes":[{"mesh":0,"name":"Candle_2","originalUnits":0.00999999977648258,"pivot":[0,0,0],"rotation":[0,0,0,1],"scale":[1,1,1],"translation":[0,0,0]}],"samplers":[{}],"scene":0,"scenes":[{"name":"Root Scene","nodes":[0]}]}