{"accessors":[{"bufferView":0,"byteOffset":0,"componentType":5123,"count":1320,"type":"SCALAR"},{"bufferView":1,"byteOffset":0,"componentType":5126,"count":865,"max":[0.173176974058151,0.478894710540771,0.136117070913315],"min":[-0.17317697405815,0.0000000298023223876953,-0.13611687719822],"type":"VEC3"},{"bufferView":2,"byteOffset":0,"componentType":5126,"count":865,"type":"VEC3"},{"bufferView":3,"byteOffset":0,"componentType":5126,"count":865,"type":"VEC2"}],"asset":{"generator":"FBX2glTF v0.13.0","version":"2.0"},"bufferViews":[{"buffer":0,"byteLength":2640,"byteOffset":0,"target":34963},{"buffer":0,"byteLength":10380,"byteOffset":2640,"target":34962},{"buffer":0,"byteLength":10380,"byteOffset":13020,"target":34962},{"buffer":0,"byteLength":6920,"byteOffset":23400,"target":34962}],"buffers":[{"byteLength":30320,"uri":"Candle_Holder.bin"}],"materials":[{"alphaMode":"OPAQUE","doubleSided":false,"extras":{"fromFBX":{"isTruePBR":false,"shadingModel":"Lambert"}},"name":"DefaultMaterial","pbrMetallicRoughness":{"baseColorFactor":[0.5,0.5,0.5,1],"metallicFactor":0.200000002980232,"roughnessFactor":0.800000011920929}}],"meshes":[{"name":"Candle_Holder","primitives":[{"attributes":{"NORMAL":2,"POSITION":1,"TEXCOORD_0":3},"indices":0,"material":0,"mode":4}]}],"nodes":[{"mesh":0,"name":"Candle_Holder","originalUnits":0.00999999977648258,"pivot":[0,0,0],"rotation":[0,0,0,1],"scale":[1,1,1],"translation":[0,0,0]}],"samplers":[{}],"scene":0,"scenes":[{"name":"Root Scene","nodes":[0]}]}