{"accessors":[{"bufferView":0,"byteOffset":0,"componentType":5123,"count":1434,"type":"SCALAR"},{"bufferView":1,"byteOffset":0,"componentType":5126,"count":918,"max":[0.350829869508743,0.287228465080261,0.210986569523811],"min":[-0.35083079338074,-0.00000003783541,-0.20952397584915],"type":"VEC3"},{"bufferView":2,"byteOffset":0,"componentType":5126,"count":918,"type":"VEC3"},{"bufferView":3,"byteOffset":0,"componentType":5126,"count":918,"type":"VEC2"}],"asset":{"generator":"FBX2glTF v0.13.0","version":"2.0"},"bufferViews":[{"buffer":0,"byteLength":2868,"byteOffset":0,"target":34963},{"buffer":0,"byteLength":11016,"byteOffset":2868,"target":34962},{"buffer":0,"byteLength":11016,"byteOffset":13884,"target":34962},{"buffer":0,"byteLength":7344,"byteOffset":24900,"target":34962}],"buffers":[{"byteLength":32244,"uri":"Chest_medium.bin"}],"materials":[{"alphaMode":"OPAQUE","doubleSided":false,"extras":{"fromFBX":{"isTruePBR":false,"shadingModel":"Lambert"}},"name":"DefaultMaterial","pbrMetallicRoughness":{"baseColorFactor":[0.5,0.5,0.5,1],"metallicFactor":0.200000002980232,"roughnessFactor":0.800000011920929}}],"meshes":[{"name":"Chest_medium","primitives":[{"attributes":{"NORMAL":2,"POSITION":1,"TEXCOORD_0":3},"indices":0,"material":0,"mode":4}]}],"nodes":[{"mesh":0,"name":"Chest_medium","originalUnits":0.00999999977648258,"pivot":[0,0,0],"rotation":[0,0,0,1],"scale":[1,1,1],"translation":[0,0,0]}],"samplers":[{}],"scene":0,"scenes":[{"name":"Root Scene","nodes":[0]}]}