{"accessors":[{"bufferView":0,"byteOffset":0,"componentType":5123,"count":2172,"type":"SCALAR"},{"bufferView":1,"byteOffset":0,"componentType":5126,"count":1464,"max":[0.684398412704468,0.557404160499573,0.650684118270874],"min":[-0.68439841270447,-0.0001677889959,-0.06298363208771],"type":"VEC3"},{"bufferView":2,"byteOffset":0,"componentType":5126,"count":1464,"type":"VEC3"},{"bufferView":3,"byteOffset":0,"componentType":5126,"count":1464,"type":"VEC2"}],"asset":{"generator":"FBX2glTF v0.13.0","version":"2.0"},"bufferViews":[{"buffer":0,"byteLength":4344,"byteOffset":0,"target":34963},{"buffer":0,"byteLength":17568,"byteOffset":4344,"target":34962},{"buffer":0,"byteLength":17568,"byteOffset":21912,"target":34962},{"buffer":0,"byteLength":11712,"byteOffset":39480,"target":34962}],"buffers":[{"byteLength":51192,"uri":"Chest_Big_Lid.bin"}],"materials":[{"alphaMode":"OPAQUE","doubleSided":false,"extras":{"fromFBX":{"isTruePBR":false,"shadingModel":"Lambert"}},"name":"DefaultMaterial","pbrMetallicRoughness":{"baseColorFactor":[0.5,0.5,0.5,1],"metallicFactor":0.200000002980232,"roughnessFactor":0.800000011920929}}],"meshes":[{"name":"Chest_Big_Lid","primitives":[{"attributes":{"NORMAL":2,"POSITION":1,"TEXCOORD_0":3},"indices":0,"material":0,"mode":4}]}],"nodes":[{"mesh":0,"name":"Chest_Big_Lid","originalUnits":0.00999999977648258,"pivot":[0,0,0],"rotation":[0,0,0,1],"scale":[1,1,1],"translation":[0,0,0]}],"samplers":[{}],"scene":0,"scenes":[{"name":"Root Scene","nodes":[0]}]}