{"accessors":[{"bufferView":0,"byteOffset":0,"componentType":5123,"count":2154,"type":"SCALAR"},{"bufferView":1,"byteOffset":0,"componentType":5126,"count":1396,"max":[0.665970206260681,0.626186013221741,0.311207830905914],"min":[-0.665971159935,-0.00000008561002,-0.30905047059059],"type":"VEC3"},{"bufferView":2,"byteOffset":0,"componentType":5126,"count":1396,"type":"VEC3"},{"bufferView":3,"byteOffset":0,"componentType":5126,"count":1396,"type":"VEC2"}],"asset":{"generator":"FBX2glTF v0.13.0","version":"2.0"},"bufferViews":[{"buffer":0,"byteLength":4308,"byteOffset":0,"target":34963},{"buffer":0,"byteLength":16752,"byteOffset":4308,"target":34962},{"buffer":0,"byteLength":16752,"byteOffset":21060,"target":34962},{"buffer":0,"byteLength":11168,"byteOffset":37812,"target":34962}],"buffers":[{"byteLength":48980,"uri":"Chest_Big_gold.bin"}],"materials":[{"alphaMode":"OPAQUE","doubleSided":false,"extras":{"fromFBX":{"isTruePBR":false,"shadingModel":"Lambert"}},"name":"DefaultMaterial","pbrMetallicRoughness":{"baseColorFactor":[0.5,0.5,0.5,1],"metallicFactor":0.200000002980232,"roughnessFactor":0.800000011920929}}],"meshes":[{"name":"Chest_Big_gold","primitives":[{"attributes":{"NORMAL":2,"POSITION":1,"TEXCOORD_0":3},"indices":0,"material":0,"mode":4}]}],"nodes":[{"mesh":0,"name":"Chest_Big_gold","originalUnits":0.00999999977648258,"pivot":[0,0,0],"rotation":[0,0,0,1],"scale":[1,1,1],"translation":[0,0,0]}],"samplers":[{}],"scene":0,"scenes":[{"name":"Root Scene","nodes":[0]}]}