{"accessors":[{"bufferView":0,"byteOffset":0,"componentType":5123,"count":3606,"type":"SCALAR"},{"bufferView":1,"byteOffset":0,"componentType":5126,"count":2356,"max":[0.360538095235825,0.597725987434387,0.210986569523811],"min":[-0.36053791642189,-0.00000003783541,-0.20952397584915],"type":"VEC3"},{"bufferView":2,"byteOffset":0,"componentType":5126,"count":2356,"type":"VEC3"},{"bufferView":3,"byteOffset":0,"componentType":5126,"count":2356,"type":"VEC2"}],"asset":{"generator":"FBX2glTF v0.13.0","version":"2.0"},"bufferViews":[{"buffer":0,"byteLength":7212,"byteOffset":0,"target":34963},{"buffer":0,"byteLength":28272,"byteOffset":7212,"target":34962},{"buffer":0,"byteLength":28272,"byteOffset":35484,"target":34962},{"buffer":0,"byteLength":18848,"byteOffset":63756,"target":34962}],"buffers":[{"byteLength":82604,"uri":"Chest_medium_Closed.bin"}],"materials":[{"alphaMode":"OPAQUE","doubleSided":false,"extras":{"fromFBX":{"isTruePBR":false,"shadingModel":"Lambert"}},"name":"DefaultMaterial","pbrMetallicRoughness":{"baseColorFactor":[0.5,0.5,0.5,1],"metallicFactor":0.200000002980232,"roughnessFactor":0.800000011920929}}],"meshes":[{"name":"Chest_medium_Closed","primitives":[{"attributes":{"NORMAL":2,"POSITION":1,"TEXCOORD_0":3},"indices":0,"material":0,"mode":4}]}],"nodes":[{"mesh":0,"name":"Chest_medium_Closed","originalUnits":0.00999999977648258,"pivot":[0,0,0],"rotation":[0,0,0,1],"scale":[1,1,1],"translation":[0,0,0]}],"samplers":[{}],"scene":0,"scenes":[{"name":"Root Scene","nodes":[0]}]}