{"accessors":[{"bufferView":0,"byteOffset":0,"componentType":5123,"count":2172,"type":"SCALAR"},{"bufferView":1,"byteOffset":0,"componentType":5126,"count":1446,"max":[0.360538005828857,0.310435175895691,0.411008298397064],"min":[-0.36053800582886,-0.00012587597303,-0.00945648364723],"type":"VEC3"},{"bufferView":2,"byteOffset":0,"componentType":5126,"count":1446,"type":"VEC3"},{"bufferView":3,"byteOffset":0,"componentType":5126,"count":1446,"type":"VEC2"}],"asset":{"generator":"FBX2glTF v0.13.0","version":"2.0"},"bufferViews":[{"buffer":0,"byteLength":4344,"byteOffset":0,"target":34963},{"buffer":0,"byteLength":17352,"byteOffset":4344,"target":34962},{"buffer":0,"byteLength":17352,"byteOffset":21696,"target":34962},{"buffer":0,"byteLength":11568,"byteOffset":39048,"target":34962}],"buffers":[{"byteLength":50616,"uri":"Chest_medium_Lid.bin"}],"materials":[{"alphaMode":"OPAQUE","doubleSided":false,"extras":{"fromFBX":{"isTruePBR":false,"shadingModel":"Lambert"}},"name":"DefaultMaterial","pbrMetallicRoughness":{"baseColorFactor":[0.5,0.5,0.5,1],"metallicFactor":0.200000002980232,"roughnessFactor":0.800000011920929}}],"meshes":[{"name":"Chest_medium_Lid","primitives":[{"attributes":{"NORMAL":2,"POSITION":1,"TEXCOORD_0":3},"indices":0,"material":0,"mode":4}]}],"nodes":[{"mesh":0,"name":"Chest_medium_Lid","originalUnits":0.00999999977648258,"pivot":[0,0,0],"rotation":[0,0,0,1],"scale":[1,1,1],"translation":[0,0,0]}],"samplers":[{}],"scene":0,"scenes":[{"name":"Root Scene","nodes":[0]}]}