{"accessors":[{"bufferView":0,"byteOffset":0,"componentType":5123,"count":714,"type":"SCALAR"},{"bufferView":1,"byteOffset":0,"componentType":5126,"count":472,"max":[0.0693862214684486,0.232588857412338,0.0729569867253304],"min":[-0.06938622146845,0.000000000000000481533254195505,-0.07295698672533],"type":"VEC3"},{"bufferView":2,"byteOffset":0,"componentType":5126,"count":472,"type":"VEC3"},{"bufferView":3,"byteOffset":0,"componentType":5126,"count":472,"type":"VEC2"}],"asset":{"generator":"FBX2glTF v0.13.0","version":"2.0"},"bufferViews":[{"buffer":0,"byteLength":1428,"byteOffset":0,"target":34963},{"buffer":0,"byteLength":5664,"byteOffset":1428,"target":34962},{"buffer":0,"byteLength":5664,"byteOffset":7092,"target":34962},{"buffer":0,"byteLength":3776,"byteOffset":12756,"target":34962}],"buffers":[{"byteLength":16532,"uri":"Potion.bin"}],"materials":[{"alphaMode":"OPAQUE","doubleSided":false,"extras":{"fromFBX":{"isTruePBR":false,"shadingModel":"Lambert"}},"name":"DefaultMaterial","pbrMetallicRoughness":{"baseColorFactor":[0.5,0.5,0.5,1],"metallicFactor":0.200000002980232,"roughnessFactor":0.800000011920929}}],"meshes":[{"name":"Potion","primitives":[{"attributes":{"NORMAL":2,"POSITION":1,"TEXCOORD_0":3},"indices":0,"material":0,"mode":4}]}],"nodes":[{"mesh":0,"name":"Potion","originalUnits":0.00999999977648258,"pivot":[0,0,0],"rotation":[0,0,0,1],"scale":[1,1,1],"translation":[0,0,0]}],"samplers":[{}],"scene":0,"scenes":[{"name":"Root Scene","nodes":[0]}]}