{"accessors":[{"bufferView":0,"byteOffset":0,"componentType":5123,"count":339,"type":"SCALAR"},{"bufferView":1,"byteOffset":0,"componentType":5126,"count":205,"max":[0.192350476980209,0.0258955135941505,0.183681517839432],"min":[-0.17630736529827,-0.02489878796041,-0.15047805011272],"type":"VEC3"},{"bufferView":2,"byteOffset":0,"componentType":5126,"count":205,"type":"VEC3"},{"bufferView":3,"byteOffset":0,"componentType":5126,"count":205,"type":"VEC2"}],"asset":{"generator":"FBX2glTF v0.13.0","version":"2.0"},"bufferViews":[{"buffer":0,"byteLength":678,"byteOffset":0,"target":34963},{"buffer":0,"byteLength":2460,"byteOffset":680,"target":34962},{"buffer":0,"byteLength":2460,"byteOffset":3140,"target":34962},{"buffer":0,"byteLength":1640,"byteOffset":5600,"target":34962}],"buffers":[{"byteLength":7240,"uri":"Stones.bin"}],"materials":[{"alphaMode":"OPAQUE","doubleSided":false,"extras":{"fromFBX":{"isTruePBR":false,"shadingModel":"Lambert"}},"name":"DefaultMaterial","pbrMetallicRoughness":{"baseColorFactor":[0.5,0.5,0.5,1],"metallicFactor":0.200000002980232,"roughnessFactor":0.800000011920929}}],"meshes":[{"name":"Dungeon_Tilemap_Stone","primitives":[{"attributes":{"NORMAL":2,"POSITION":1,"TEXCOORD_0":3},"indices":0,"material":0,"mode":4}]}],"nodes":[{"mesh":0,"name":"Dungeon_Tilemap_Stone","originalUnits":0.00999999977648258,"pivot":[0,0,0],"rotation":[0,0,0,1],"scale":[1,1,1],"translation":[0,0,0]}],"samplers":[{}],"scene":0,"scenes":[{"name":"Root Scene","nodes":[0]}]}