{"accessors":[{"bufferView":0,"byteOffset":0,"componentType":5123,"count":750,"type":"SCALAR"},{"bufferView":1,"byteOffset":0,"componentType":5126,"count":496,"max":[0.0643715560436249,0.215245202183723,0.0673382729291916],"min":[-0.09228181838989,-0.44611540436745,-0.06733827292919],"type":"VEC3"},{"bufferView":2,"byteOffset":0,"componentType":5126,"count":496,"type":"VEC3"},{"bufferView":3,"byteOffset":0,"componentType":5126,"count":496,"type":"VEC2"}],"asset":{"generator":"FBX2glTF v0.13.0","version":"2.0"},"bufferViews":[{"buffer":0,"byteLength":1500,"byteOffset":0,"target":34963},{"buffer":0,"byteLength":5952,"byteOffset":1500,"target":34962},{"buffer":0,"byteLength":5952,"byteOffset":7452,"target":34962},{"buffer":0,"byteLength":3968,"byteOffset":13404,"target":34962}],"buffers":[{"byteLength":17372,"uri":"Torch.bin"}],"materials":[{"alphaMode":"OPAQUE","doubleSided":false,"extras":{"fromFBX":{"isTruePBR":false,"shadingModel":"Lambert"}},"name":"DefaultMaterial","pbrMetallicRoughness":{"baseColorFactor":[0.5,0.5,0.5,1],"metallicFactor":0.200000002980232,"roughnessFactor":0.800000011920929}}],"meshes":[{"name":"Torch","primitives":[{"attributes":{"NORMAL":2,"POSITION":1,"TEXCOORD_0":3},"indices":0,"material":0,"mode":4}]}],"nodes":[{"mesh":0,"name":"Torch","originalUnits":0.00999999977648258,"pivot":[0,0,0],"rotation":[0,0,0,1],"scale":[1,1,1],"translation":[0,0,0]}],"samplers":[{}],"scene":0,"scenes":[{"name":"Root Scene","nodes":[0]}]}