{"accessors":[{"bufferView":0,"byteOffset":0,"componentType":5123,"count":3396,"type":"SCALAR"},{"bufferView":1,"byteOffset":0,"componentType":5126,"count":2246,"max":[0.125573962926865,0.0847819298505783,0.211059048771858],"min":[-0.12557590007782,-1.33523333072662,-0.00000005181955],"type":"VEC3"},{"bufferView":2,"byteOffset":0,"componentType":5126,"count":2246,"type":"VEC3"},{"bufferView":3,"byteOffset":0,"componentType":5126,"count":2246,"type":"VEC2"}],"asset":{"generator":"FBX2glTF v0.13.0","version":"2.0"},"bufferViews":[{"buffer":0,"byteLength":6792,"byteOffset":0,"target":34963},{"buffer":0,"byteLength":26952,"byteOffset":6792,"target":34962},{"buffer":0,"byteLength":26952,"byteOffset":33744,"target":34962},{"buffer":0,"byteLength":17968,"byteOffset":60696,"target":34962}],"buffers":[{"byteLength":78664,"uri":"Wall_Chain_2.bin"}],"materials":[{"alphaMode":"OPAQUE","doubleSided":false,"extras":{"fromFBX":{"isTruePBR":false,"shadingModel":"Lambert"}},"name":"DefaultMaterial","pbrMetallicRoughness":{"baseColorFactor":[0.5,0.5,0.5,1],"metallicFactor":0.200000002980232,"roughnessFactor":0.800000011920929}}],"meshes":[{"name":"Wall_Chain_2","primitives":[{"attributes":{"NORMAL":2,"POSITION":1,"TEXCOORD_0":3},"indices":0,"material":0,"mode":4}]}],"nodes":[{"mesh":0,"name":"Wall_Chain_2","originalUnits":0.00999999977648258,"pivot":[0,0,0],"rotation":[0,0,0,1],"scale":[1,1,1],"translation":[0,0,0]}],"samplers":[{}],"scene":0,"scenes":[{"name":"Root Scene","nodes":[0]}]}