{"accessors":[{"bufferView":0,"byteOffset":0,"componentType":5123,"count":4536,"type":"SCALAR"},{"bufferView":1,"byteOffset":0,"componentType":5126,"count":2940,"max":[0.5660400390625,0.118903920054436,0.162385627627373],"min":[-0.56603997945786,-0.86020112037659,-0.01373694371432],"type":"VEC3"},{"bufferView":2,"byteOffset":0,"componentType":5126,"count":2940,"type":"VEC3"},{"bufferView":3,"byteOffset":0,"componentType":5126,"count":2940,"type":"VEC2"}],"asset":{"generator":"FBX2glTF v0.13.0","version":"2.0"},"bufferViews":[{"buffer":0,"byteLength":9072,"byteOffset":0,"target":34963},{"buffer":0,"byteLength":35280,"byteOffset":9072,"target":34962},{"buffer":0,"byteLength":35280,"byteOffset":44352,"target":34962},{"buffer":0,"byteLength":23520,"byteOffset":79632,"target":34962}],"buffers":[{"byteLength":103152,"uri":"Wall_Chain.bin"}],"materials":[{"alphaMode":"OPAQUE","doubleSided":false,"extras":{"fromFBX":{"isTruePBR":false,"shadingModel":"Lambert"}},"name":"DefaultMaterial","pbrMetallicRoughness":{"baseColorFactor":[0.5,0.5,0.5,1],"metallicFactor":0.200000002980232,"roughnessFactor":0.800000011920929}}],"meshes":[{"name":"Wall_Chain","primitives":[{"attributes":{"NORMAL":2,"POSITION":1,"TEXCOORD_0":3},"indices":0,"material":0,"mode":4}]}],"nodes":[{"mesh":0,"name":"Wall_Chain","originalUnits":0.00999999977648258,"pivot":[0,0,0],"rotation":[0,0,0,1],"scale":[1,1,1],"translation":[0,0,0]}],"samplers":[{}],"scene":0,"scenes":[{"name":"Root Scene","nodes":[0]}]}